<?xml version="1.0" encoding="UTF-8"?>
<svg id="Layer_1" data-name="Layer 1" xmlns="http://www.w3.org/2000/svg" version="1.1" viewBox="0 0 229.4 176.9">
  <defs>
    <style>
      .cls-1 {
        fill: #fff100;
      }

      .cls-1, .cls-2, .cls-3 {
        fill-rule: evenodd;
        stroke-width: 0px;
      }

      .cls-2 {
        fill: #00a551;
      }

      .cls-3 {
        fill: #2e3191;
      }
    </style>
  </defs>
  <path class="cls-3" d="M89,123.2h55.5c3.1,0,5.7,2.5,5.7,5.7h0c0,3.1-2.5,5.7-5.7,5.7h-55.5c-3.1,0-5.7-2.5-5.7-5.7h0c0-3.1,2.5-5.7,5.7-5.7"/>
  <path class="cls-3" d="M92.6,137.1h48.3c3.1,0,5.7,2.5,5.7,5.7h0c0,3.1-2.5,5.7-5.7,5.7h-48.3c-3.1,0-5.7-2.5-5.7-5.7h0c0-3.1,2.5-5.7,5.7-5.7"/>
  <path class="cls-3" d="M95.3,151.2h42.8c3.1,0,5.7,2.5,5.7,5.7s-2.5,5.7-5.7,5.7h-42.8c-3.1,0-5.7-2.5-5.7-5.7s2.5-5.7,5.7-5.7"/>
  <path class="cls-3" d="M106.3,165.1h20.8c3.1,0,5.7,2.5,5.7,5.7h0c0,3.1-2.5,5.7-5.7,5.7h-20.8c-3.1,0-5.7-2.5-5.7-5.7h0c0-3.1,2.5-5.7,5.7-5.7"/>
  <path class="cls-1" d="M178.5.4s-24.4,20.4-36.5,66.8c-4,15.3-9.3,40.5-9.8,56h-16.2S129.3,39.9,178.5.4"/>
  <path class="cls-3" d="M51.5,0s29.1,26.4,41.2,72.8c4,15.3,9,34.9,9.4,50.5h16.2S100.3,36.9,51.5,0"/>
  <polygon class="cls-2" points="107.5 29 125.2 29 116.3 68 107.5 29"/>
</svg>