<?xml version="1.0" encoding="utf-8"?>
<!-- Generator: Adobe Illustrator 27.0.0, SVG Export Plug-In . SVG Version: 6.00 Build 0)  -->
<svg version="1.1" id="Layer_1" xmlns="http://www.w3.org/2000/svg" xmlns:xlink="http://www.w3.org/1999/xlink" x="0px" y="0px"
	 viewBox="0 0 229.4 176.9" style="enable-background:new 0 0 229.4 176.9;" xml:space="preserve">
<style type="text/css">
	.st0{fill:#384DA0;}
	.st1{fill:#2F4595;}
</style>
<g>
	<g>
		<g>
			<path class="st0" d="M228.5,6.5c-0.3-0.6-0.8-1.2-1.3-1.8c-2.5-2.6-5.6-1.5-8.5-0.5c-0.3,0.1-0.6,0.2-1,0.3
				c-1.3,0.4-2.5,0.7-3.7-0.3c-1-0.9-2.1-1.6-3.2-2.2c-6.4-3.5-13-2-19.7,1.3c-3.4,1.6-6.4,3.8-9.2,6.2c-1.8,1.5-3.6,3.1-5.4,4.7
				c-0.4,0.4-0.8,0.7-1.3,1.1c-1.2,1-2.4,1.9-3.6,2.7l15.7,3.6l3.9,0.9h-68.2l11.7,15.9l-13.1,12.5l-3.8,3.6L91,80.4L65.4,105
				c-0.1,0.2-0.2,0.4-0.2,0.6c0,0.7,0.7,1.2,2.2,1.6c3.3,0.9,6.6,1.7,10.2,3.8c-5.3,4.4-10.4,8.7-15.6,13c-1.7,1.5-3.5,2.9-5.2,4.3
				c-2.5,2.1-5,4.2-7.5,6.3c-1.1,0.9-2.1,1.8-3.2,2.6c-0.6,0.6-1.3,1.2-1.9,1.8c-2.6,2.4-5.3,4.7-8.1,6.7c-0.1,0.1-0.2,0.2-0.3,0.3
				c-1.4,1.6-3,2.9-4.7,4.2c-0.4,0.3-0.9,0.7-1.3,1c-8,6.9-16,13.8-24.2,20.9c-1.8,1.6-3.7,3.2-5.5,4.8c0.8,0.1,1.4,0,2-0.3
				c0.8-0.3,1.4-0.8,2.1-1.1l5.7-3c8.3-4.4,16.6-8.8,24.9-13.2c0.9-0.6,1.9-1.1,2.8-1.7c2-1.2,4-2.3,6.1-3.4c1-0.5,2-1,3.1-1.4
				c0.5-0.4,1-0.8,1.6-1.1c1.7-0.9,3.4-1.8,5-2.7c2.1-1.1,4.2-2.3,6.3-3.4c3.1-1.7,6.2-3.3,9.3-5c2.2-1.2,4.4-2.4,6.6-3.6
				c10.9-5.9,21.8-11.7,32.7-17.6c0.2-0.1,0.5-0.3,0.8-0.4c0.9-0.5,1.9-1,2.8-1.5c5.8-3.1,11.7-6.4,18.1-9.8
				c-2.3-0.8-4.4-1.6-6.5-2.3c-2.1-0.8-4.2-1.5-6.3-2.2c1.2-1.8,2.9-2.2,4.2-3c7.1-4,14.3-8,21.4-11.9c8.3-4.6,16.6-9.3,25-13.9
				c2-1.1,4-2.2,6.1-3.3c0,0,0,0,0,0c2.9-1.6,5.9-3.2,8.8-4.8c0.7-0.4,1.4-0.8,2-1.1c1.4-0.7,2.7-1.5,3.9-2.3
				c3.3-2.1,6.2-4.4,8.8-6.9c1.8-1.9,3.4-3.9,4.8-6.1c3-4.9,4.8-10.6,5.2-17.4c0.1-2.7,0.7-5.2,1.6-7.4c0.7-1.7,1.7-3.3,2.8-4.7
				c1.9-2.3,4.4-4.1,7.6-5.5c0.2-0.1,0.4-0.2,0.6-0.3c0.1-0.1,0.3-0.1,0.5-0.2c3-1.1,5.9-1.9,8,2.1C229.4,12.8,230.1,9.3,228.5,6.5z
				 M199.2,6.2c0.1,0,0.2,0,0.3,0c0.1,0,0.2,0,0.3,0h0.1l2.8,0h1.4c0.3,0,0.6,0.5,0.4,0.6l-7.8,5.1c-0.3,0.2-0.9-0.1-0.9-0.6l0-0.7
				C195.6,8.2,197,6.5,199.2,6.2z"/>
			<path class="st0" d="M104.8,29.2c-2.6-2.1-5.3-4-8.1-5.7h0c-4.5-2.6-9.3-4.6-14.3-6c-3.8-1.1-7.7-1.7-11.7-2
				c-1.5-0.1-3-0.2-4.5-0.2H54.8l4.2,7.6l3.3,6l4.8,8.7l3.3,6l16,28.8l29-27.9l1.6-1.5C113.7,37.8,109.5,33.1,104.8,29.2z
				 M88.3,60.7L76.9,40.1l-3.3-6l-4.8-8.7l-1.6-2.9c1,0,2,0.1,3,0.1c3.5,0.2,6.9,0.9,10.3,1.8c4.4,1.2,8.6,3,12.6,5.3l0.5,0.3
				c2.3,1.4,4.6,3,6.7,4.7c2.7,2.2,5.2,4.7,7.4,7.5L88.3,60.7z"/>
			<path class="st0" d="M104.8,29.2c-2.6-2.1-5.3-4-8.1-5.7h0c-4.5-2.6-9.3-4.6-14.3-6c-3.8-1.1-7.7-1.7-11.7-2
				c-1.5-0.1-3-0.2-4.5-0.2H54.8l4.2,7.6l3.3,6l4.8,8.7l3.3,6l16,28.8l29-27.9l1.6-1.5C113.7,37.8,109.5,33.1,104.8,29.2z
				 M88.3,60.7L76.9,40.1l-3.3-6l-4.8-8.7l-1.6-2.9c1,0,2,0.1,3,0.1c3.5,0.2,6.9,0.9,10.3,1.8c4.4,1.2,8.6,3,12.6,5.3l0.5,0.3
				c2.3,1.4,4.6,3,6.7,4.7c2.7,2.2,5.2,4.7,7.4,7.5L88.3,60.7z"/>
			<path class="st0" d="M181.3,158.2l-3.4-6.2l-5.4-9.7L169,136l-5.2-9.3l-3.7-6.7l-13.3-23.9c-0.3,0.2-8.1,4.5-9.2,5.1l13.7,4.8
				l-17.4,9.5l-7.9,4.3c-3.4,1.9-6.7,3.7-10,5.4c4.4,7,9.8,13.2,16,18.4c2,1.7,4,3.2,6.2,4.7c3.2,2.2,6.5,4.1,10,5.7
				c2.5,1.2,5,2.3,7.7,3.2c4.2,1.5,8.6,2.6,13,3.4c3,0.5,6,0.8,9.1,1c1.2,0.1,2.5,0.1,3.7,0.1h1.6L181.3,158.2z M170.1,153.4
				c-4-0.7-8-1.7-11.8-3.1c-2.3-0.8-4.7-1.8-6.9-2.9c-3.1-1.5-6.2-3.2-9-5.2c-1.9-1.3-3.8-2.7-5.6-4.2c-3.7-3.1-7.1-6.6-10.1-10.4
				c1-0.5,1.9-1.1,2.9-1.6l7.8-4.3l11.9-6.5l4.5,8.2l3.7,6.6l5.2,9.3l3.5,6.3l4.3,7.7C170.3,153.5,170.2,153.5,170.1,153.4z"/>
			<path class="st0" d="M181.3,158.2l-3.4-6.2l-5.4-9.7L169,136l-5.2-9.3l-3.7-6.7l-13.3-23.9c-0.3,0.2-8.1,4.5-9.2,5.1l13.7,4.8
				l-17.4,9.5l-7.9,4.3c-3.4,1.9-6.7,3.7-10,5.4c4.4,7,9.8,13.2,16,18.4c2,1.7,4,3.2,6.2,4.7c3.2,2.2,6.5,4.1,10,5.7
				c2.5,1.2,5,2.3,7.7,3.2c4.2,1.5,8.6,2.6,13,3.4c3,0.5,6,0.8,9.1,1c1.2,0.1,2.5,0.1,3.7,0.1h1.6L181.3,158.2z M170.1,153.4
				c-4-0.7-8-1.7-11.8-3.1c-2.3-0.8-4.7-1.8-6.9-2.9c-3.1-1.5-6.2-3.2-9-5.2c-1.9-1.3-3.8-2.7-5.6-4.2c-3.7-3.1-7.1-6.6-10.1-10.4
				c1-0.5,1.9-1.1,2.9-1.6l7.8-4.3l11.9-6.5l4.5,8.2l3.7,6.6l5.2,9.3l3.5,6.3l4.3,7.7C170.3,153.5,170.2,153.5,170.1,153.4z"/>
		</g>
	</g>
</g>
<path class="st0" d="M181.3,158.2l-3.4-6.2l-5.4-9.7L169,136l-5.2-9.3l-3.7-6.7l-13.3-23.9c-0.3,0.2-8.1,4.5-9.2,5.1l13.7,4.8
	l-17.4,9.5l-7.9,4.3c-3.4,1.9-6.7,3.7-10,5.4c4.4,7,9.8,13.2,16,18.4c2,1.7,4,3.2,6.2,4.7c3.2,2.2,6.5,4.1,10,5.7
	c2.5,1.2,5,2.3,7.7,3.2c4.2,1.5,8.6,2.6,13,3.4c3,0.5,6,0.8,9.1,1c1.2,0.1,2.5,0.1,3.7,0.1h1.6L181.3,158.2z M170.1,153.4
	c-4-0.7-8-1.7-11.8-3.1c-2.3-0.8-4.7-1.8-6.9-2.9c-3.1-1.5-6.2-3.2-9-5.2c-1.9-1.3-3.8-2.7-5.6-4.2c-3.7-3.1-7.1-6.6-10.1-10.4
	c1-0.5,1.9-1.1,2.9-1.6l7.8-4.3l11.9-6.5l4.5,8.2l3.7,6.6l5.2,9.3l3.5,6.3l4.3,7.7C170.3,153.5,170.2,153.5,170.1,153.4z"/>
<path class="st1" d="M228.3,16.6c-2.1-4-5-3.2-8-2.1c-0.2,0.1-0.3,0.1-0.5,0.2c-0.2,0.1-0.4,0.2-0.6,0.3c-3.2,1.4-5.7,3.2-7.6,5.5
	c-1.2,1.4-2.1,3-2.8,4.7c-0.9,2.2-1.5,4.7-1.6,7.4c-0.4,6.8-2.2,12.5-5.2,17.4c-1.4,2.2-3,4.2-4.8,6.1c-2.5,2.6-5.5,4.9-8.8,6.9
	c-1.3,0.8-2.6,1.6-3.9,2.3c-0.7,0.4-1.4,0.7-2,1.1c-2.9,1.6-5.9,3.2-8.8,4.8c0,0,0,0,0,0c-2,1.1-4,2.2-6.1,3.3
	c-8.4,4.6-16.7,9.2-25,13.9c-7.1,4-14.3,8-21.4,11.9c-1.4,0.8-3,1.2-4.2,3c2.1,0.7,4.2,1.5,6.3,2.2c2,0.7,4.2,1.5,6.5,2.3
	c-6.4,3.5-12.2,6.7-18.1,9.8c-0.9,0.5-1.9,1-2.8,1.5c-0.2,0.1-0.5,0.3-0.8,0.4c-10.9,5.9-21.8,11.7-32.7,17.6
	c-2.2,1.2-4.4,2.4-6.6,3.6c-3.1,1.7-6.2,3.3-9.3,5c-2.1,1.1-4.2,2.3-6.3,3.4c-1.7,0.9-3.4,1.8-5,2.7c-0.6,0.3-1.1,0.7-1.6,1.1
	c-1,0.4-2.1,0.9-3.1,1.4c-2.1,1-4.1,2.2-6.1,3.4c-0.9,0.6-1.9,1.1-2.8,1.7c-8.3,4.4-16.6,8.8-24.9,13.2l-5.7,3
	c-0.7,0.3-1.3,0.8-2.1,1.1L186.3,22.5l1.1-0.9L210.9,2c1.1,0.6,2.1,1.3,3.2,2.2c1.3,1,2.4,0.7,3.7,0.3c0.3-0.1,0.6-0.2,1-0.3
	c2.9-1,6-2.1,8.5,0.5c0.6,0.6,1,1.2,1.3,1.8C230.1,9.3,229.4,12.8,228.3,16.6z"/>
<polyline class="st1" points="88.5,106.7 79.9,101.5 154.4,39.2 143.5,30.4 186.3,22.5 "/>
</svg>
