<?xml version="1.0" encoding="UTF-8"?>
<svg id="Layer_1" data-name="Layer 1" xmlns="http://www.w3.org/2000/svg" version="1.1" viewBox="0 0 609 222.7">
  <defs>
    <style>
      .cls-1, .cls-2, .cls-3 {
        fill-rule: evenodd;
      }

      .cls-1, .cls-2, .cls-3, .cls-4 {
        stroke-width: 0px;
      }

      .cls-1, .cls-4 {
        fill: #fff;
      }

      .cls-2 {
        fill: #fff100;
      }

      .cls-3 {
        fill: #00a551;
      }
    </style>
  </defs>
  <path class="cls-1" d="M49.1,148.7h59.1c3.3,0,6,2.7,6,6h0c0,3.3-2.7,6-6,6h-59.1c-3.3,0-6-2.7-6-6h0c0-3.3,2.7-6,6-6"/>
  <path class="cls-1" d="M52.9,163.4h51.4c3.3,0,6,2.7,6,6h0c0,3.3-2.7,6-6,6h-51.4c-3.3,0-6-2.7-6-6h0c0-3.3,2.7-6,6-6"/>
  <path class="cls-1" d="M55.8,178.4h45.6c3.3,0,6,2.7,6,6s-2.7,6-6,6h-45.6c-3.3,0-6-2.7-6-6s2.7-6,6-6"/>
  <path class="cls-1" d="M67.5,193.3h22.2c3.3,0,6,2.7,6,6h0c0,3.3-2.7,6-6,6h-22.2c-3.3,0-6-2.7-6-6h0c0-3.3,2.7-6,6-6"/>
  <path class="cls-2" d="M144.4,17.9s-26,21.7-38.9,71.1c-4.2,16.3-9.9,43.1-10.4,59.6h-17.2s14.2-88.8,66.5-130.8"/>
  <path class="cls-1" d="M9.2,17.4s30.9,28.1,43.8,77.5c4.2,16.3,9.6,37.2,10,53.7h17.2S61.2,56.7,9.2,17.4"/>
  <polygon class="cls-3" points="68.8 48.2 87.6 48.2 78.2 89.8 68.8 48.2"/>
  <path class="cls-4" d="M560.3,142.9h-9.3v-38.7h8.6v5.5c1.5-2.6,2.8-4.3,4-5.1,1.2-.8,2.5-1.2,4-1.2s4.2.6,6.1,1.9l-2.9,8.9c-1.6-1.1-3-1.7-4.4-1.7s-2.4.4-3.3,1.2c-.9.8-1.6,2.2-2.1,4.3-.5,2.1-.8,6.4-.8,13v11.9ZM534.6,120.3c0-3-.8-5.2-2.1-6.8-1.3-1.6-2.9-2.3-4.8-2.3s-3.7.8-5,2.4c-1.3,1.6-2,3.9-1.9,6.7h13.9ZM534,130.6l9.3,1.7c-1.2,3.7-3.1,6.6-5.6,8.6-2.6,2-5.8,2.9-9.6,2.9-6.1,0-10.6-2.2-13.6-6.6-2.3-3.5-3.5-8-3.5-13.4s1.5-11.5,4.6-15.1c3-3.6,6.9-5.5,11.5-5.5s9.3,1.9,12.4,5.7c3,3.8,4.5,9.6,4.3,17.5h-23.2c0,3,.8,5.4,2.2,7.1,1.4,1.7,3.2,2.5,5.3,2.5s2.7-.4,3.7-1.3c1-.9,1.7-2.3,2.2-4.2ZM467.5,142.9l-11.1-38.7h9l6.6,25.4,6.1-25.4h9l5.8,25.4,6.7-25.4h9.2l-11.3,38.7h-8.9l-6-24.9-6,24.9h-9ZM427,123.6c0,3.8.8,6.8,2.5,8.8,1.7,2.1,3.7,3.1,6.1,3.1s4.4-1,6.1-3.1c1.6-2,2.5-5,2.5-8.9s-.8-6.7-2.5-8.8c-1.6-2.1-3.7-3.1-6.1-3.1s-4.5,1-6.1,3.1c-1.6,2-2.5,5-2.5,8.8ZM417.5,123.1c0-3.4.8-6.7,2.3-9.9,1.5-3.2,3.7-5.6,6.5-7.3,2.8-1.7,5.9-2.5,9.3-2.5,5.3,0,9.7,1.9,13.1,5.7,3.4,3.8,5.1,8.6,5.1,14.4s-1.7,10.7-5.1,14.6c-3.4,3.9-7.7,5.8-12.9,5.8s-6.3-.8-9.2-2.4c-2.9-1.6-5.1-4-6.7-7.1-1.5-3.1-2.3-6.9-2.3-11.3ZM387.1,122.9c0,4.4.8,7.6,2.3,9.7,1.6,2.1,3.5,3.1,5.7,3.1s4-1,5.4-2.9c1.4-1.9,2.1-5,2.1-9.4s-.7-7.1-2.2-9.1c-1.5-2-3.3-3-5.5-3s-4.2,1-5.6,2.9c-1.5,1.9-2.2,4.8-2.2,8.6ZM378,104.2h8.7v5.7c1.1-1.9,2.6-3.5,4.6-4.7,1.9-1.2,4.1-1.8,6.4-1.8,4.1,0,7.5,1.8,10.4,5.3,2.8,3.5,4.3,8.4,4.3,14.7s-1.4,11.5-4.3,15.1c-2.9,3.6-6.3,5.4-10.4,5.4s-3.7-.4-5.3-1.3c-1.6-.8-3.2-2.3-5-4.4v19.4h-9.3v-53.4ZM341.1,124.4c-1.2.4-3.1,1-5.7,1.6-2.6.6-4.3,1.2-5.1,1.8-1.2,1-1.8,2.2-1.8,3.6s.5,2.7,1.5,3.7c1,1,2.2,1.6,3.7,1.6s3.3-.6,4.8-1.8c1.1-.9,1.9-2.1,2.2-3.4.2-.9.4-2.5.4-5v-2ZM328.7,116.1l-8.4-1.6c.9-3.8,2.6-6.6,4.9-8.4,2.3-1.8,5.8-2.7,10.3-2.7s7.2.5,9.3,1.6c2,1.1,3.5,2.4,4.3,4.1.8,1.7,1.2,4.7,1.2,9.2v11.9c-.1,3.4,0,5.9.3,7.5.3,1.6.8,3.3,1.7,5.2h-9.2c-.2-.7-.5-1.7-.9-3-.1-.6-.3-1-.3-1.2-1.6,1.7-3.3,3-5.1,3.9-1.8.9-3.7,1.3-5.8,1.3-3.6,0-6.4-1.1-8.5-3.2-2.1-2.2-3.1-4.9-3.1-8.2s.5-4.1,1.4-5.8c.9-1.7,2.3-3,4-3.9,1.7-.9,4.2-1.7,7.4-2.4,4.3-.9,7.3-1.7,9-2.5v-1c0-2-.4-3.4-1.3-4.3-.9-.8-2.6-1.3-5-1.3s-2.9.4-3.9,1.1c-.9.7-1.7,2-2.3,3.8ZM279.6,104.2h9.9l8.4,27.5,8.2-27.5h9.6l-12.4,37.3-2.2,6.7c-.8,2.3-1.6,4-2.3,5.2-.7,1.2-1.6,2.2-2.6,2.9-1,.7-2.1,1.3-3.6,1.7-1.4.4-3,.6-4.8.6s-3.5-.2-5.3-.6l-.8-8c1.5.3,2.8.5,4,.5,2.2,0,3.8-.7,4.8-2.1,1-1.4,1.8-3.2,2.4-5.4l-13.4-38.8ZM274.7,142.9h-9.3v-19.7c0-4.2-.2-6.9-.6-8.1-.4-1.2-1-2.2-2-2.9-.9-.7-2-1-3.3-1s-3.1.5-4.4,1.5c-1.3,1-2.2,2.3-2.7,3.9-.5,1.6-.7,4.6-.7,8.9v17.5h-9.3v-38.7h8.6v5.7c3.1-4.3,7-6.5,11.6-6.5s3.9.4,5.6,1.2c1.7.8,3,1.9,3.9,3.1.9,1.3,1.5,2.7,1.8,4.3.3,1.6.5,3.9.5,6.9v24ZM225.9,120.3c0-3-.8-5.2-2.1-6.8-1.3-1.6-2.9-2.3-4.8-2.3s-3.7.8-5,2.4c-1.3,1.6-2,3.9-1.9,6.7h13.9ZM225.4,130.6l9.3,1.7c-1.2,3.7-3.1,6.6-5.6,8.6-2.6,2-5.8,2.9-9.6,2.9-6.1,0-10.6-2.2-13.6-6.6-2.3-3.5-3.5-8-3.5-13.4s1.5-11.5,4.6-15.1c3-3.6,6.9-5.5,11.5-5.5s9.3,1.9,12.4,5.7c3,3.8,4.5,9.6,4.3,17.5h-23.2c0,3,.8,5.4,2.2,7.1,1.4,1.7,3.2,2.5,5.3,2.5s2.7-.4,3.7-1.3c1-.9,1.7-2.3,2.2-4.2ZM156.3,142.9v-53.4h9.8v23.7l19.8-23.7h13.2l-18.3,20.8,19.2,32.6h-12.7l-13.3-25.1-7.9,8.9v16.2h-9.8Z"/>
</svg>