<?xml version="1.0" encoding="utf-8"?>
<!-- Generator: Adobe Illustrator 27.0.0, SVG Export Plug-In . SVG Version: 6.00 Build 0)  -->
<svg version="1.1" id="Layer_1" xmlns="http://www.w3.org/2000/svg" xmlns:xlink="http://www.w3.org/1999/xlink" x="0px" y="0px"
	 viewBox="0 0 672.8 222.7" style="enable-background:new 0 0 672.8 222.7;" xml:space="preserve">
<style type="text/css">
	.st0{fill:#19C4E9;}
	.st1{fill:#13B3D5;}
	.st2{fill:#FFFFFF;}
</style>
<g>
	<g>
		<g>
			<path class="st0" d="M287.7,8.1c-0.4-0.8-1-1.5-1.7-2.3c-3.1-3.2-7-1.8-10.6-0.6c-0.4,0.1-0.8,0.3-1.2,0.4
				c-1.7,0.5-3.1,0.9-4.7-0.4c-9.3-7.7-19-5.9-28.8-1.2c-4.3,2.1-8,4.8-11.6,7.8c-2.3,1.9-4.6,3.9-6.8,5.9c-0.5,0.5-1.1,0.9-1.6,1.4
				c-1.5,1.3-3,2.4-4.5,3.4l25.2,5.9l-50.9,0.3h0c-0.2,0.2-0.5,0.3-0.7,0.5l0,0l-1,0.9l-3.3,3.1l-6,5.6l-2.3,2.1l-4.2,4l-19.8,19
				l-4.8,4.6l-33.9,32.5l-32.3,31c-0.1,0.3-0.2,0.5-0.2,0.8c0,0.8,0.8,1.5,2.7,2c4.1,1.2,8.3,2.2,12.8,4.7
				c-6.6,5.5-13.1,11-19.6,16.4c-2.2,1.8-4.4,3.7-6.5,5.5c-3.2,2.6-6.3,5.2-9.4,7.9c-1.3,1.1-2.6,2.2-4,3.3
				c-0.8,0.8-1.6,1.6-2.4,2.3c-3.2,3-6.6,5.9-10.2,8.5c-0.2,0.1-0.3,0.2-0.4,0.3c-1.8,2-3.8,3.7-5.9,5.3c-0.5,0.4-1.1,0.8-1.7,1.2
				c-10.1,8.7-20.2,17.4-30.5,26.3c-2.3,2-4.6,4-6.9,6c2.3,0.2,3.6-1,5.1-1.7l7.2-3.8c10.5-5.5,20.9-11,31.3-16.6
				c1.2-0.7,2.3-1.4,3.5-2.1c2.5-1.5,5.1-3,7.7-4.2c1.3-0.6,2.5-1.2,3.8-1.8c0.7-0.5,1.3-1,2-1.4c2.1-1.1,4.2-2.3,6.3-3.4
				c2.7-1.4,5.3-2.9,8-4.3c3.9-2.1,7.8-4.2,11.7-6.3c2.8-1.5,5.5-3,8.3-4.5c13.7-7.4,27.4-14.8,41.1-22.2c0.3-0.2,0.6-0.3,1-0.5
				c1.2-0.6,2.3-1.3,3.5-1.9c7.3-4,14.7-8,22.7-12.3c-2.9-1-5.6-2-8.1-2.9c-2.7-1-5.3-1.9-7.9-2.8c1.6-2.2,3.6-2.8,5.3-3.7
				c9-5,18-10,26.9-15c10.5-5.8,20.9-11.7,31.5-17.5c2.5-1.4,5.1-2.8,7.6-4.2c0,0,0,0,0.1,0c3.7-2,7.4-4,11.1-6
				c0.9-0.5,1.7-1,2.6-1.4c1.7-0.9,3.4-1.9,5-2.9c4.1-2.6,7.8-5.5,11-8.7c2.3-2.4,4.3-4.9,6-7.7c3.8-6.1,6.1-13.3,6.5-21.9
				c0.2-3.4,0.9-6.5,2-9.3c0.9-2.1,2.1-4.1,3.5-5.9c2.4-2.9,5.6-5.2,9.6-6.9c0.3-0.1,0.5-0.2,0.8-0.3c0.2-0.1,0.4-0.2,0.6-0.2
				c3.8-1.4,7.4-2.4,10.1,2.6c0.1-0.3,0.2-0.6,0.3-1C288.9,15.5,289.5,11.5,287.7,8.1z M250.8,7.7c0.1,0,0.2,0,0.4-0.1
				c0.1,0,0.3,0,0.4,0h0.1l3.5,0h1.7c0.4,0,0.8,0.6,0.5,0.8l-9.8,6.4c-0.4,0.2-1.1-0.2-1.1-0.7l0-0.8C246.2,10.4,248,8.2,250.8,7.7z
				"/>
			<path class="st0" d="M287.7,8.1c-0.4-0.8-1-1.5-1.7-2.3c-3.1-3.2-7-1.8-10.6-0.6c-0.4,0.1-0.8,0.3-1.2,0.4
				c-1.7,0.5-3.1,0.9-4.7-0.4c-9.3-7.7-19-5.9-28.8-1.2c-4.3,2.1-8,4.8-11.6,7.8c-2.3,1.9-4.6,3.9-6.8,5.9c-0.5,0.5-1.1,0.9-1.6,1.4
				c-1.5,1.3-3,2.4-4.5,3.4l25.2,5.9l-50.9,0.3h0c-0.2,0.2-0.5,0.3-0.7,0.5l0,0l-1,0.9l-3.3,3.1l-6,5.6l-2.3,2.1l-4.2,4l-19.8,19
				l-4.8,4.6l-33.9,32.5l-32.3,31c-0.1,0.3-0.2,0.5-0.2,0.8c0,0.8,0.8,1.5,2.7,2c4.1,1.2,8.3,2.2,12.8,4.7
				c-6.6,5.5-13.1,11-19.6,16.4c-2.2,1.8-4.4,3.7-6.5,5.5c-3.2,2.6-6.3,5.2-9.4,7.9c-1.3,1.1-2.6,2.2-4,3.3
				c-0.8,0.8-1.6,1.6-2.4,2.3c-3.2,3-6.6,5.9-10.2,8.5c-0.2,0.1-0.3,0.2-0.4,0.3c-1.8,2-3.8,3.7-5.9,5.3c-0.5,0.4-1.1,0.8-1.7,1.2
				c-10.1,8.7-20.2,17.4-30.5,26.3c-2.3,2-4.6,4-6.9,6c2.3,0.2,3.6-1,5.1-1.7l7.2-3.8c10.5-5.5,20.9-11,31.3-16.6
				c1.2-0.7,2.3-1.4,3.5-2.1c2.5-1.5,5.1-3,7.7-4.2c1.3-0.6,2.5-1.2,3.8-1.8c0.7-0.5,1.3-1,2-1.4c2.1-1.1,4.2-2.3,6.3-3.4
				c2.7-1.4,5.3-2.9,8-4.3c3.9-2.1,7.8-4.2,11.7-6.3c2.8-1.5,5.5-3,8.3-4.5c13.7-7.4,27.4-14.8,41.1-22.2c0.3-0.2,0.6-0.3,1-0.5
				c1.2-0.6,2.3-1.3,3.5-1.9c7.3-4,14.7-8,22.7-12.3c-2.9-1-5.6-2-8.1-2.9c-2.7-1-5.3-1.9-7.9-2.8c1.6-2.2,3.6-2.8,5.3-3.7
				c9-5,18-10,26.9-15c10.5-5.8,20.9-11.7,31.5-17.5c2.5-1.4,5.1-2.8,7.6-4.2c0,0,0,0,0.1,0c3.7-2,7.4-4,11.1-6
				c0.9-0.5,1.7-1,2.6-1.4c1.7-0.9,3.4-1.9,5-2.9c4.1-2.6,7.8-5.5,11-8.7c2.3-2.4,4.3-4.9,6-7.7c3.8-6.1,6.1-13.3,6.5-21.9
				c0.2-3.4,0.9-6.5,2-9.3c0.9-2.1,2.1-4.1,3.5-5.9c2.4-2.9,5.6-5.2,9.6-6.9c0.3-0.1,0.5-0.2,0.8-0.3c0.2-0.1,0.4-0.2,0.6-0.2
				c3.8-1.4,7.4-2.4,10.1,2.6c0.1-0.3,0.2-0.6,0.3-1C288.9,15.5,289.5,11.5,287.7,8.1z M250.8,7.7c0.1,0,0.2,0,0.4-0.1
				c0.1,0,0.3,0,0.4,0h0.1l3.5,0h1.7c0.4,0,0.8,0.6,0.5,0.8l-9.8,6.4c-0.4,0.2-1.1-0.2-1.1-0.7l0-0.8C246.2,10.4,248,8.2,250.8,7.7z
				"/>
			<path class="st0" d="M287.7,8.1c-0.4-0.8-1-1.5-1.7-2.3c-3.1-3.2-7-1.8-10.6-0.6c-0.4,0.1-0.8,0.3-1.2,0.4
				c-1.7,0.5-3.1,0.9-4.7-0.4c-9.3-7.7-19-5.9-28.8-1.2c-4.3,2.1-8,4.8-11.6,7.8c-2.3,1.9-4.6,3.9-6.8,5.9c-0.5,0.5-1.1,0.9-1.6,1.4
				c-1.5,1.3-3,2.4-4.5,3.4l25.2,5.9l-50.9,0.3h0c-0.2,0.2-0.5,0.3-0.7,0.5l0,0l-1,0.9l-3.3,3.1l-6,5.6l-2.3,2.1l-4.2,4l-19.8,19
				l-4.8,4.6l-33.9,32.5l-32.3,31c-0.1,0.3-0.2,0.5-0.2,0.8c0,0.8,0.8,1.5,2.7,2c4.1,1.2,8.3,2.2,12.8,4.7
				c-6.6,5.5-13.1,11-19.6,16.4c-2.2,1.8-4.4,3.7-6.5,5.5c-3.2,2.6-6.3,5.2-9.4,7.9c-1.3,1.1-2.6,2.2-4,3.3
				c-0.8,0.8-1.6,1.6-2.4,2.3c-3.2,3-6.6,5.9-10.2,8.5c-0.2,0.1-0.3,0.2-0.4,0.3c-1.8,2-3.8,3.7-5.9,5.3c-0.5,0.4-1.1,0.8-1.7,1.2
				c-10.1,8.7-20.2,17.4-30.5,26.3c-2.3,2-4.6,4-6.9,6c2.3,0.2,3.6-1,5.1-1.7l7.2-3.8c10.5-5.5,20.9-11,31.3-16.6
				c1.2-0.7,2.3-1.4,3.5-2.1c2.5-1.5,5.1-3,7.7-4.2c1.3-0.6,2.5-1.2,3.8-1.8c0.7-0.5,1.3-1,2-1.4c2.1-1.1,4.2-2.3,6.3-3.4
				c2.7-1.4,5.3-2.9,8-4.3c3.9-2.1,7.8-4.2,11.7-6.3c2.8-1.5,5.5-3,8.3-4.5c13.7-7.4,27.4-14.8,41.1-22.2c0.3-0.2,0.6-0.3,1-0.5
				c1.2-0.6,2.3-1.3,3.5-1.9c7.3-4,14.7-8,22.7-12.3c-2.9-1-5.6-2-8.1-2.9c-2.7-1-5.3-1.9-7.9-2.8c1.6-2.2,3.6-2.8,5.3-3.7
				c9-5,18-10,26.9-15c10.5-5.8,20.9-11.7,31.5-17.5c2.5-1.4,5.1-2.8,7.6-4.2c0,0,0,0,0.1,0c3.7-2,7.4-4,11.1-6
				c0.9-0.5,1.7-1,2.6-1.4c1.7-0.9,3.4-1.9,5-2.9c4.1-2.6,7.8-5.5,11-8.7c2.3-2.4,4.3-4.9,6-7.7c3.8-6.1,6.1-13.3,6.5-21.9
				c0.2-3.4,0.9-6.5,2-9.3c0.9-2.1,2.1-4.1,3.5-5.9c2.4-2.9,5.6-5.2,9.6-6.9c0.3-0.1,0.5-0.2,0.8-0.3c0.2-0.1,0.4-0.2,0.6-0.2
				c3.8-1.4,7.4-2.4,10.1,2.6c0.1-0.3,0.2-0.6,0.3-1C288.9,15.5,289.5,11.5,287.7,8.1z M250.8,7.7c0.1,0,0.2,0,0.4-0.1
				c0.1,0,0.3,0,0.4,0h0.1l3.5,0h1.7c0.4,0,0.8,0.6,0.5,0.8l-9.8,6.4c-0.4,0.2-1.1-0.2-1.1-0.7l0-0.8C246.2,10.4,248,8.2,250.8,7.7z
				"/>
			<path class="st0" d="M287.7,8.1c-0.4-0.8-1-1.5-1.7-2.3c-3.1-3.2-7-1.8-10.6-0.6c-0.4,0.1-0.8,0.3-1.2,0.4
				c-1.7,0.5-3.1,0.9-4.7-0.4c-9.3-7.7-19-5.9-28.8-1.2c-4.3,2.1-8,4.8-11.6,7.8c-2.3,1.9-4.6,3.9-6.8,5.9c-0.5,0.5-1.1,0.9-1.6,1.4
				c-1.5,1.3-3,2.4-4.5,3.4l25.2,5.9l-50.9,0.3h0c-0.2,0.2-0.5,0.3-0.7,0.5l0,0l-1,0.9l-3.3,3.1l-6,5.6l-2.3,2.1l-4.2,4l-19.8,19
				l-4.8,4.6l-33.9,32.5l-32.3,31c-0.1,0.3-0.2,0.5-0.2,0.8c0,0.8,0.8,1.5,2.7,2c4.1,1.2,8.3,2.2,12.8,4.7
				c-6.6,5.5-13.1,11-19.6,16.4c-2.2,1.8-4.4,3.7-6.5,5.5c-3.2,2.6-6.3,5.2-9.4,7.9c-1.3,1.1-2.6,2.2-4,3.3
				c-0.8,0.8-1.6,1.6-2.4,2.3c-3.2,3-6.6,5.9-10.2,8.5c-0.2,0.1-0.3,0.2-0.4,0.3c-1.8,2-3.8,3.7-5.9,5.3c-0.5,0.4-1.1,0.8-1.7,1.2
				c-10.1,8.7-20.2,17.4-30.5,26.3c-2.3,2-4.6,4-6.9,6c2.3,0.2,3.6-1,5.1-1.7l7.2-3.8c10.5-5.5,20.9-11,31.3-16.6
				c1.2-0.7,2.3-1.4,3.5-2.1c2.5-1.5,5.1-3,7.7-4.2c1.3-0.6,2.5-1.2,3.8-1.8c0.7-0.5,1.3-1,2-1.4c2.1-1.1,4.2-2.3,6.3-3.4
				c2.7-1.4,5.3-2.9,8-4.3c3.9-2.1,7.8-4.2,11.7-6.3c2.8-1.5,5.5-3,8.3-4.5c13.7-7.4,27.4-14.8,41.1-22.2c0.3-0.2,0.6-0.3,1-0.5
				c1.2-0.6,2.3-1.3,3.5-1.9c7.3-4,14.7-8,22.7-12.3c-2.9-1-5.6-2-8.1-2.9c-2.7-1-5.3-1.9-7.9-2.8c1.6-2.2,3.6-2.8,5.3-3.7
				c9-5,18-10,26.9-15c10.5-5.8,20.9-11.7,31.5-17.5c2.5-1.4,5.1-2.8,7.6-4.2c0,0,0,0,0.1,0c3.7-2,7.4-4,11.1-6
				c0.9-0.5,1.7-1,2.6-1.4c1.7-0.9,3.4-1.9,5-2.9c4.1-2.6,7.8-5.5,11-8.7c2.3-2.4,4.3-4.9,6-7.7c3.8-6.1,6.1-13.3,6.5-21.9
				c0.2-3.4,0.9-6.5,2-9.3c0.9-2.1,2.1-4.1,3.5-5.9c2.4-2.9,5.6-5.2,9.6-6.9c0.3-0.1,0.5-0.2,0.8-0.3c0.2-0.1,0.4-0.2,0.6-0.2
				c3.8-1.4,7.4-2.4,10.1,2.6c0.1-0.3,0.2-0.6,0.3-1C288.9,15.5,289.5,11.5,287.7,8.1z M250.8,7.7c0.1,0,0.2,0,0.4-0.1
				c0.1,0,0.3,0,0.4,0h0.1l3.5,0h1.7c0.4,0,0.8,0.6,0.5,0.8l-9.8,6.4c-0.4,0.2-1.1-0.2-1.1-0.7l0-0.8C246.2,10.4,248,8.2,250.8,7.7z
				"/>
			<path class="st0" d="M287.7,8.1c-0.4-0.8-1-1.5-1.7-2.3c-3.1-3.2-7-1.8-10.6-0.6c-0.4,0.1-0.8,0.3-1.2,0.4
				c-1.7,0.5-3.1,0.9-4.7-0.4c-9.3-7.7-19-5.9-28.8-1.2c-4.3,2.1-8,4.8-11.6,7.8c-2.3,1.9-4.6,3.9-6.8,5.9c-0.5,0.5-1.1,0.9-1.6,1.4
				c-1.5,1.3-3,2.4-4.5,3.4l25.2,5.9l-50.9,0.3h0c-0.2,0.2-0.5,0.3-0.7,0.5l0,0l-1,0.9l-3.3,3.1l-6,5.6l-2.3,2.1l-4.2,4l-19.8,19
				l-4.8,4.6l-33.9,32.5l-32.3,31c-0.1,0.3-0.2,0.5-0.2,0.8c0,0.8,0.8,1.5,2.7,2c4.1,1.2,8.3,2.2,12.8,4.7
				c-6.6,5.5-13.1,11-19.6,16.4c-2.2,1.8-4.4,3.7-6.5,5.5c-3.2,2.6-6.3,5.2-9.4,7.9c-1.3,1.1-2.6,2.2-4,3.3
				c-0.8,0.8-1.6,1.6-2.4,2.3c-3.2,3-6.6,5.9-10.2,8.5c-0.2,0.1-0.3,0.2-0.4,0.3c-1.8,2-3.8,3.7-5.9,5.3c-0.5,0.4-1.1,0.8-1.7,1.2
				c-10.1,8.7-20.2,17.4-30.5,26.3c-2.3,2-4.6,4-6.9,6c2.3,0.2,3.6-1,5.1-1.7l7.2-3.8c10.5-5.5,20.9-11,31.3-16.6
				c1.2-0.7,2.3-1.4,3.5-2.1c2.5-1.5,5.1-3,7.7-4.2c1.3-0.6,2.5-1.2,3.8-1.8c0.7-0.5,1.3-1,2-1.4c2.1-1.1,4.2-2.3,6.3-3.4
				c2.7-1.4,5.3-2.9,8-4.3c3.9-2.1,7.8-4.2,11.7-6.3c2.8-1.5,5.5-3,8.3-4.5c13.7-7.4,27.4-14.8,41.1-22.2c0.3-0.2,0.6-0.3,1-0.5
				c1.2-0.6,2.3-1.3,3.5-1.9c7.3-4,14.7-8,22.7-12.3c-2.9-1-5.6-2-8.1-2.9c-2.7-1-5.3-1.9-7.9-2.8c1.6-2.2,3.6-2.8,5.3-3.7
				c9-5,18-10,26.9-15c10.5-5.8,20.9-11.7,31.5-17.5c2.5-1.4,5.1-2.8,7.6-4.2c0,0,0,0,0.1,0c3.7-2,7.4-4,11.1-6
				c0.9-0.5,1.7-1,2.6-1.4c1.7-0.9,3.4-1.9,5-2.9c4.1-2.6,7.8-5.5,11-8.7c2.3-2.4,4.3-4.9,6-7.7c3.8-6.1,6.1-13.3,6.5-21.9
				c0.2-3.4,0.9-6.5,2-9.3c0.9-2.1,2.1-4.1,3.5-5.9c2.4-2.9,5.6-5.2,9.6-6.9c0.3-0.1,0.5-0.2,0.8-0.3c0.2-0.1,0.4-0.2,0.6-0.2
				c3.8-1.4,7.4-2.4,10.1,2.6c0.1-0.3,0.2-0.6,0.3-1C288.9,15.5,289.5,11.5,287.7,8.1z M250.8,7.7c0.1,0,0.2,0,0.4-0.1
				c0.1,0,0.3,0,0.4,0h0.1l3.5,0h1.7c0.4,0,0.8,0.6,0.5,0.8l-9.8,6.4c-0.4,0.2-1.1-0.2-1.1-0.7l0-0.8C246.2,10.4,248,8.2,250.8,7.7z
				"/>
			<path class="st1" d="M287.7,8.1c-0.4-0.8-1-1.5-1.7-2.3c-3.1-3.2-7-1.8-10.6-0.6c-0.4,0.1-0.8,0.3-1.2,0.4
				c-1.7,0.5-3.1,0.9-4.7-0.4c-9.3-7.7-19-5.9-28.8-1.2c-4.3,2.1-8,4.8-11.6,7.8c-2.3,1.9-4.6,3.9-6.8,5.9c-0.5,0.5-1.1,0.9-1.6,1.4
				c-1.5,1.3-3,2.4-4.5,3.4l25.2,5.9l-50.9,0.3h0c-0.2,0.2-0.5,0.3-0.7,0.5l0,0l-1,0.9l-3.3,3.1l-6,5.6l-2.3,2.1l-4.2,4l-19.8,19
				l-4.8,4.6l-33.9,32.5l-32.3,31c-0.1,0.3-0.2,0.5-0.2,0.8c0,0.8,0.8,1.5,2.7,2c4.1,1.2,8.3,2.2,12.8,4.7
				c-6.6,5.5-13.1,11-19.6,16.4c-2.2,1.8-4.4,3.7-6.5,5.5c-3.2,2.6-6.3,5.2-9.4,7.9c-1.3,1.1-2.6,2.2-4,3.3
				c-0.8,0.8-1.6,1.6-2.4,2.3c-3.2,3-6.6,5.9-10.2,8.5c-0.2,0.1-0.3,0.2-0.4,0.3c-1.8,2-3.8,3.7-5.9,5.3c-0.5,0.4-1.1,0.8-1.7,1.2
				c-10.1,8.7-20.2,17.4-30.5,26.3c-2.3,2-4.6,4-6.9,6c2.3,0.2,3.6-1,5.1-1.7l7.2-3.8c10.5-5.5,20.9-11,31.3-16.6
				c1.2-0.7,2.3-1.4,3.5-2.1c2.5-1.5,5.1-3,7.7-4.2c1.3-0.6,2.5-1.2,3.8-1.8c0.7-0.5,1.3-1,2-1.4c2.1-1.1,4.2-2.3,6.3-3.4
				c2.7-1.4,5.3-2.9,8-4.3c3.9-2.1,7.8-4.2,11.7-6.3c2.8-1.5,5.5-3,8.3-4.5c13.7-7.4,27.4-14.8,41.1-22.2c0.3-0.2,0.6-0.3,1-0.5
				c1.2-0.6,2.3-1.3,3.5-1.9c7.3-4,14.7-8,22.7-12.3c-2.9-1-5.6-2-8.1-2.9c-2.7-1-5.3-1.9-7.9-2.8c1.6-2.2,3.6-2.8,5.3-3.7
				c9-5,18-10,26.9-15c10.5-5.8,20.9-11.7,31.5-17.5c2.5-1.4,5.1-2.8,7.6-4.2c0,0,0,0,0.1,0c3.7-2,7.4-4,11.1-6
				c0.9-0.5,1.7-1,2.6-1.4c1.7-0.9,3.4-1.9,5-2.9c4.1-2.6,7.8-5.5,11-8.7c2.3-2.4,4.3-4.9,6-7.7c3.8-6.1,6.1-13.3,6.5-21.9
				c0.2-3.4,0.9-6.5,2-9.3c0.9-2.1,2.1-4.1,3.5-5.9c2.4-2.9,5.6-5.2,9.6-6.9c0.3-0.1,0.5-0.2,0.8-0.3c0.2-0.1,0.4-0.2,0.6-0.2
				c3.8-1.4,7.4-2.4,10.1,2.6c0.1-0.3,0.2-0.6,0.3-1C288.9,15.5,289.5,11.5,287.7,8.1z M250.8,7.7c0.1,0,0.2,0,0.4-0.1
				c0.1,0,0.3,0,0.4,0h0.1l3.5,0h1.7c0.4,0,0.8,0.6,0.5,0.8l-9.8,6.4c-0.4,0.2-1.1-0.2-1.1-0.7l0-0.8C246.2,10.4,248,8.2,250.8,7.7z
				"/>
			<path class="st0" d="M131.9,36.7c-3.2-2.7-6.7-5-10.2-7.1h0c-5.6-3.3-11.7-5.8-18-7.5c-4.8-1.3-9.7-2.2-14.8-2.5
				c-1.9-0.2-3.7-0.2-5.6-0.2H69l5.3,9.6l4.2,7.5l6.1,10.9l4.2,7.6L109,91.2l36.5-35.1l2-1.9C143.1,47.5,137.9,41.6,131.9,36.7z
				 M111.2,76.5L96.8,50.5l-4.2-7.6L86.5,32l-2-3.7c1.2,0,2.5,0.1,3.7,0.2c4.4,0.3,8.7,1.1,13,2.3c5.5,1.5,10.9,3.8,15.8,6.6
				l0.6,0.4c2.9,1.8,5.8,3.7,8.4,5.9c3.4,2.8,6.6,6,9.4,9.4L111.2,76.5z"/>
			<path class="st1" d="M131.9,36.7c-3.2-2.7-6.7-5-10.2-7.1h0c-5.6-3.3-11.7-5.8-18-7.5c-4.8-1.3-9.7-2.2-14.8-2.5
				c-1.9-0.2-3.7-0.2-5.6-0.2H69l5.3,9.6l4.2,7.5l6.1,10.9l4.2,7.6L109,91.2l36.5-35.1l2-1.9C143.1,47.5,137.9,41.6,131.9,36.7z
				 M111.2,76.5L96.8,50.5l-4.2-7.6L86.5,32l-2-3.7c1.2,0,2.5,0.1,3.7,0.2c4.4,0.3,8.7,1.1,13,2.3c5.5,1.5,10.9,3.8,15.8,6.6
				l0.6,0.4c2.9,1.8,5.8,3.7,8.4,5.9c3.4,2.8,6.6,6,9.4,9.4L111.2,76.5z"/>
			<path class="st0" d="M228.3,199.1l-4.3-7.8l-6.8-12.2l-4.4-8l-6.5-11.7l-4.7-8.4l-16.7-30.1c-0.4,0.2-10.2,5.7-11.6,6.5l17.2,6.1
				l-21.9,11.9l-9.9,5.4c-4.3,2.3-8.5,4.6-12.6,6.9c5.5,8.9,12.4,16.6,20.2,23.1c2.5,2.1,5.1,4,7.8,5.9c4,2.7,8.2,5.1,12.6,7.2
				c3.1,1.5,6.3,2.8,9.6,4c5.3,1.9,10.8,3.3,16.4,4.3c3.8,0.6,7.6,1,11.4,1.2c1.6,0.1,3.1,0.1,4.7,0.1h2L228.3,199.1z M214.1,193.1
				c-5.1-0.8-10.1-2.1-14.9-3.9c-3-1-5.9-2.3-8.7-3.6c-3.9-1.9-7.8-4.1-11.4-6.5c-2.4-1.6-4.8-3.5-7.1-5.3
				c-4.7-3.9-8.9-8.3-12.7-13.1c1.2-0.7,2.5-1.3,3.7-2l9.9-5.4l15-8.2l5.7,10.3l4.7,8.4l6.5,11.7l4.5,8l5.4,9.7
				C214.4,193.2,214.2,193.2,214.1,193.1z"/>
			<path class="st0" d="M228.3,199.1l-4.3-7.8l-6.8-12.2l-4.4-8l-6.5-11.7l-4.7-8.4l-16.7-30.1c-0.4,0.2-10.2,5.7-11.6,6.5l17.2,6.1
				l-21.9,11.9l-9.9,5.4c-4.3,2.3-8.5,4.6-12.6,6.9c5.5,8.9,12.4,16.6,20.2,23.1c2.5,2.1,5.1,4,7.8,5.9c4,2.7,8.2,5.1,12.6,7.2
				c3.1,1.5,6.3,2.8,9.6,4c5.3,1.9,10.8,3.3,16.4,4.3c3.8,0.6,7.6,1,11.4,1.2c1.6,0.1,3.1,0.1,4.7,0.1h2L228.3,199.1z M214.1,193.1
				c-5.1-0.8-10.1-2.1-14.9-3.9c-3-1-5.9-2.3-8.7-3.6c-3.9-1.9-7.8-4.1-11.4-6.5c-2.4-1.6-4.8-3.5-7.1-5.3
				c-4.7-3.9-8.9-8.3-12.7-13.1c1.2-0.7,2.5-1.3,3.7-2l9.9-5.4l15-8.2l5.7,10.3l4.7,8.4l6.5,11.7l4.5,8l5.4,9.7
				C214.4,193.2,214.2,193.2,214.1,193.1z"/>
		</g>
		<g>
			<path class="st2" d="M275.3,90.1l-6.4,29.9l-5.5,25.9h9.6l4.3-20.4l0.9-4.3h9.5c2.5,0,4.9-0.9,6.7-2.4s3.2-3.6,3.7-6h-18.1l2-9.6
				l1-4.7h10.6c2.5,0,4.9-0.9,6.8-2.4c0.9-0.8,1.8-1.7,2.4-2.7c0.6-1,1.1-2.1,1.4-3.4H275.3z"/>
			<path class="st2" d="M318.8,102.6c-0.4,0-0.8,0-1.1,0c-7.8,0.4-11.5,4.4-13.3,9.6c-0.3,0.8-0.5,1.7-0.8,2.6h9
				c0.8-3.1,2.1-5.2,5.3-5.2h0.1c4.5,0.1,4.5,3.4,3.8,6.7l-0.7,3.2c-1,0.1-1.9,0.2-2.9,0.3c-2,0.2-3.9,0.4-5.7,0.7
				c-3.1,0.5-5.9,1.3-8.2,2.7c-3.2,1.8-5.5,4.7-6.5,9.5c-1.1,5.3,0,11,4.7,13.1c1.2,0.6,2.7,0.9,4.5,0.9c4.6,0,7.1-1.5,9.3-4.4
				c0,0,0,0,0,0c-0.2,0.8,0,1.5,0.4,2.2c0.5,0.9,1.5,1.5,2.6,1.5h5.7c0.3-2.4,1.3-6.7,2.1-10.4l3.9-18.3
				C333.2,107.2,328.3,102.6,318.8,102.6z M319.1,129.1c-0.4,1.9-0.8,3.5-1.4,4.9c-1.4,3.3-3.5,5-6.5,5c-3.7,0-4.5-2.9-3.8-6.1
				c0.7-3.4,3.3-4.9,6.7-5.7c1.2-0.3,2.6-0.5,4-0.6c0.5,0,1-0.1,1.6-0.1L319.1,129.1z"/>
			<path class="st2" d="M343.7,96.7l-10.5,49.2h9.6l12.5-58.6C349.7,87.3,344.9,91.2,343.7,96.7z"/>
			<path class="st2" d="M385.8,116.5c0.8-6-0.9-13.9-12.3-13.9c-10.8,0-16.4,10.1-18.7,20.8c-2.4,11.1-2,23.2,11.4,23.2
				c10.9,0,14.7-7.3,16.5-12.8h-9.5c-0.9,2.2-2.6,5-6,5c-5.4,0-4.4-7.4-3-14.3c1.6-7.9,4.3-14.1,8.5-14.1c3.3,0,4.1,2.3,3.7,6.1
				H385.8z"/>
			<path class="st2" d="M408.5,102.6c-9.3,0-16.5,8.1-19.1,21.3c-2.9,14.4,1.2,22.8,12.3,22.8c11.8,0,17.1-10.1,19.3-21.2
				C423.6,112.6,420.8,102.6,408.5,102.6z M411.5,124.7c-1.9,8.8-4.9,14-9,14c-4.4,0-5.7-4.1-3.7-13.8c1.4-6.9,4.5-14.5,9.1-14.5
				C413.6,110.5,413.2,117,411.5,124.7z"/>
			<path class="st2" d="M451.1,102.6c-4.9,0-8,2.1-10.1,5.2c0,0,0,0,0,0c0.4-2.3-1.3-4.5-3.7-4.5h-5c-0.3,1.7-0.8,4.5-2.7,13.3
				l-6.3,29.4h9.6l5.6-26.4c1.4-6.7,3.7-9,7.5-9c3.7,0,4.6,2.5,3.6,6.9l-6,28.4h9.6l6.3-29.2C461.6,107,457.8,102.6,451.1,102.6z"/>
			<path class="st2" d="M529.9,74.3h-17.2c-0.7,1.3-21.5,30.9-22.5,32.6h-0.3c-0.2-1.4-4.8-15.8-5.1-17.4h-15.9l9.9,27.8L457,145.9
				H473c1-1.8,11.5-16.4,12.4-18.1h0.2c0.3,1.8,5.3,16.4,5.7,18.1h16l-10.5-28.7L529.9,74.3z"/>
			<path class="st2" d="M546.7,116.9v-0.2c6.3-2.2,9.8-6.4,9.8-12.6c0-6.9-4.9-13.8-18.2-13.8c-13.7,0-19.1,7.8-20.7,15.3h13.3
				c1-3.3,2.5-5.6,6.1-5.6c3.3,0,4.6,2.2,4.6,4.8c0,4-2.5,7.1-8.4,7.1h-3.7l-2.2,10.1h3.9c5.7,0,7.5,2.6,7.5,6.5
				c0,4.8-2.3,8.7-7,8.7c-4,0-5.6-3.1-5.6-7h-14.1c-0.4,8.2,4.3,16.7,19.4,16.7c15.6,0,22.5-8.8,22.5-18.3
				C554.1,121.6,549.4,118.2,546.7,116.9z"/>
			<path class="st2" d="M587.9,109c-4.6,0-7.5,1.3-10.3,3.4c1.6-7.5,4.4-12.6,8.9-12.6c3.6,0,4.5,2.1,4.6,4.9h13.6
				c0.1-6.3-3.6-14.5-17.9-14.5c-21.8,0-26.3,26.2-26.3,36.3c0,12.9,6,20.3,18.7,20.3c16.5,0,23-11.7,23-22.7
				C602.3,115.4,596.9,109,587.9,109z M579.8,137.2c-3.2,0-5-2.5-5-6.5c0-5.1,1.9-11.8,7.3-11.8c3.3,0,5,2.1,5,6.2
				C587.1,130.1,584.9,137.2,579.8,137.2z"/>
			<path class="st2" d="M634.9,90.2c-14.6,0-22.1,13-24.8,26.6c-3.4,17.1,0.2,30.1,16.7,30.1c15.5,0,22.3-13.9,24.8-26.3
				C655,104.1,651.5,90.2,634.9,90.2z M637,118.8c-2.5,12.7-5.4,18.1-9.6,18.1c-5.2,0-5.3-6.5-2.9-18.4c2.1-10.8,4.8-18.2,9.9-18.2
				C639.7,100.2,639.5,106.5,637,118.8z"/>
		</g>
	</g>
</g>
<path class="st0" d="M228.3,199.1l-4.3-7.8l-6.8-12.2l-4.4-8l-6.5-11.7l-4.7-8.4l-16.7-30.1c-0.4,0.2-10.2,5.7-11.6,6.5l17.2,6.1
	l-21.9,11.9l-9.9,5.4c-4.3,2.3-8.5,4.6-12.6,6.9c5.5,8.9,12.4,16.6,20.2,23.1c2.5,2.1,5.1,4,7.8,5.9c4,2.7,8.2,5.1,12.6,7.2
	c3.1,1.5,6.3,2.8,9.6,4c5.3,1.9,10.8,3.3,16.4,4.3c3.8,0.6,7.6,1,11.4,1.2c1.6,0.1,3.1,0.1,4.7,0.1h2L228.3,199.1z M214.1,193.1
	c-5.1-0.8-10.1-2.1-14.9-3.9c-3-1-5.9-2.3-8.7-3.6c-3.9-1.9-7.8-4.1-11.4-6.5c-2.4-1.6-4.8-3.5-7.1-5.3c-4.7-3.9-8.9-8.3-12.7-13.1
	c1.2-0.7,2.5-1.3,3.7-2l9.9-5.4l15-8.2l5.7,10.3l4.7,8.4l6.5,11.7l4.5,8l5.4,9.7C214.4,193.2,214.2,193.2,214.1,193.1z"/>
<path class="st0" d="M287.9,20.3c-0.4,0.2-0.2,0.1-0.6,0.3c-2.7-4.7-6.2-3.8-9.9-2.4c-0.2,0.1-0.4,0.2-0.6,0.2
	c-0.3,0.1-0.5,0.2-0.8,0.3c-4,1.7-7.2,4-9.6,6.9c-1.5,1.8-2.7,3.7-3.5,5.9c-1.2,2.8-1.8,5.9-2,9.3c-0.4,8.6-2.7,15.8-6.5,21.9
	c-1.7,2.8-3.7,5.3-6,7.7c-3.2,3.2-6.9,6.1-11,8.7c-1.6,1-3.2,2-5,2.9c-0.9,0.5-1.7,0.9-2.6,1.4c-3.7,2-7.4,4-11.1,6c0,0,0,0-0.1,0
	c-2.5,1.4-5.1,2.8-7.6,4.2c-10.5,5.8-21,11.6-31.5,17.5c-9,5-18,10-26.9,15c-1.7,1-3.7,1.5-5.3,3.7c2.6,0.9,5.2,1.8,7.9,2.8
	c2.6,0.9,5.2,1.8,8.1,2.9c-8,4.3-15.4,8.4-22.7,12.3c-1.2,0.6-2.3,1.3-3.5,1.9c-0.3,0.2-0.6,0.3-1,0.5
	c-13.7,7.4-27.4,14.8-41.1,22.2c-2.8,1.5-5.5,3-8.3,4.5c-3.9,2.1-7.8,4.2-11.7,6.3c-2.7,1.4-5.3,2.9-8,4.3c-2.1,1.1-4.2,2.3-6.3,3.4
	c-0.7,0.4-1.4,0.9-2,1.4c-1.3,0.5-2.6,1.1-3.8,1.8c-2.6,1.3-5.2,2.8-7.7,4.2c-1.2,0.7-2.3,1.4-3.5,2.1
	c-10.4,5.5-20.9,11.1-31.3,16.6l-7.2,3.8c-1.4,0.8-2.7,2-5.1,1.7l116.3-84.4c0.6-0.4,0.4-1.4-0.3-1.6l-14-4l95.8-84.2
	c10.8-9.5,24.5-15.1,38.9-15.8l14-0.7c2.1-0.1,2.9-2.9,1.1-4l-12.7-8.3c-0.3-0.2-0.3-0.7,0.1-0.8C245.3,16.9,281.1,4.9,287.9,20.3z"
	/>
</svg>
