<?xml version="1.0" encoding="utf-8"?>
<!-- Generator: Adobe Illustrator 27.0.0, SVG Export Plug-In . SVG Version: 6.00 Build 0)  -->
<svg version="1.1" id="Layer_1" xmlns="http://www.w3.org/2000/svg" xmlns:xlink="http://www.w3.org/1999/xlink" x="0px" y="0px"
	 viewBox="0 0 626.6 263.4" style="enable-background:new 0 0 626.6 263.4;" xml:space="preserve">
<style type="text/css">
	.st0{fill:#FFFFFF;}
</style>
<g>
	<g>
		<g>
			<path class="st0" d="M339.8,9.6c-0.5-0.9-1.1-1.8-1.9-2.7c-3.7-3.8-8.3-2.2-12.6-0.7c-0.5,0.2-0.9,0.3-1.4,0.5
				c-2,0.6-3.6,1.1-5.5-0.4c-10.9-9.1-22.5-6.9-34-1.4c-5,2.4-9.5,5.7-13.7,9.2c-2.7,2.3-5.4,4.6-8.1,7c-0.6,0.6-1.3,1.1-1.9,1.7
				c-1.7,1.5-3.5,2.8-5.4,4l29.8,6.9L225,34h0c-0.3,0.2-0.6,0.4-0.8,0.6l0,0l-1.2,1.1l-3.9,3.6l-7.1,6.6l-2.7,2.5l-4.9,4.8
				l-23.3,22.4l-5.6,5.4l-40,38.4l-38.1,36.6c-0.2,0.3-0.2,0.6-0.2,0.9c0,1,1,1.7,3.2,2.4c4.8,1.4,9.8,2.6,15.2,5.6
				c-7.8,6.5-15.5,13-23.1,19.4c-2.6,2.2-5.2,4.3-7.7,6.5c-3.7,3.1-7.4,6.2-11.1,9.3c-1.6,1.3-3.1,2.6-4.7,3.9
				c-1,0.9-1.9,1.9-2.9,2.7c-3.8,3.6-7.8,6.9-12.1,10c-0.2,0.1-0.4,0.3-0.5,0.4c-2.1,2.4-4.5,4.4-7,6.2c-0.7,0.5-1.3,1-2,1.4
				c-11.9,10.3-23.9,20.6-36,31c-2.7,2.4-5.5,4.7-8.2,7.1c2.8,0.3,4.3-1.2,6-2l8.5-4.5c12.4-6.5,24.7-13.1,37-19.6
				c1.4-0.8,2.8-1.7,4.2-2.5c3-1.8,6-3.5,9.1-5c1.5-0.7,3-1.4,4.5-2.1c0.8-0.6,1.6-1.2,2.4-1.6c2.5-1.4,5-2.7,7.5-4
				c3.1-1.7,6.3-3.4,9.4-5.1c4.6-2.5,9.2-5,13.8-7.4c3.2-1.8,6.5-3.5,9.8-5.3c16.2-8.7,32.4-17.5,48.6-26.2c0.4-0.2,0.8-0.4,1.1-0.6
				c1.4-0.8,2.8-1.5,4.1-2.2c8.6-4.7,17.4-9.4,26.8-14.6c-3.4-1.2-6.6-2.3-9.6-3.4c-3.2-1.1-6.3-2.2-9.4-3.3
				c1.9-2.6,4.3-3.3,6.3-4.4c10.6-5.9,21.2-11.8,31.8-17.7c12.4-6.9,24.7-13.8,37.1-20.6c3-1.6,6-3.3,9-4.9c0,0,0.1,0,0.1,0
				c4.4-2.4,8.7-4.8,13.1-7.1c1-0.6,2-1.1,3-1.7c2-1.1,4-2.2,5.9-3.4c4.9-3.1,9.3-6.5,13-10.3c2.7-2.8,5.1-5.8,7.1-9.1
				c4.5-7.2,7.2-15.7,7.7-25.9c0.2-4,1-7.7,2.4-11c1.1-2.5,2.5-4.8,4.2-6.9c2.8-3.4,6.6-6.1,11.3-8.1c0.3-0.1,0.6-0.3,0.9-0.4
				c0.2-0.1,0.5-0.2,0.7-0.3c4.5-1.7,8.7-2.8,11.9,3.1C341.1,19,342,13.9,339.8,9.6z M304,10l-11.6,7.6c-0.5,0.3-1.3-0.2-1.3-0.8
				l-0.1-1c-0.2-3.5,1.9-6.1,5.1-6.6c0.1,0,0.3,0,0.5-0.1c0.2,0,0.3,0,0.5,0h0.2l4.1,0h2C304,9,304.4,9.7,304,10z"/>
			<path class="st0" d="M339.8,9.6c-0.5-0.9-1.1-1.8-1.9-2.7c-3.7-3.8-8.3-2.2-12.6-0.7c-0.5,0.2-0.9,0.3-1.4,0.5
				c-2,0.6-3.6,1.1-5.5-0.4c-10.9-9.1-22.5-6.9-34-1.4c-5,2.4-9.5,5.7-13.7,9.2c-2.7,2.3-5.4,4.6-8.1,7c-0.6,0.6-1.3,1.1-1.9,1.7
				c-1.7,1.5-3.5,2.8-5.4,4l29.8,6.9L225,34h0c-0.3,0.2-0.6,0.4-0.8,0.6l0,0l-1.2,1.1l-3.9,3.6l-7.1,6.6l-2.7,2.5l-4.9,4.8
				l-23.3,22.4l-5.6,5.4l-40,38.4l-38.1,36.6c-0.2,0.3-0.2,0.6-0.2,0.9c0,1,1,1.7,3.2,2.4c4.8,1.4,9.8,2.6,15.2,5.6
				c-7.8,6.5-15.5,13-23.1,19.4c-2.6,2.2-5.2,4.3-7.7,6.5c-3.7,3.1-7.4,6.2-11.1,9.3c-1.6,1.3-3.1,2.6-4.7,3.9
				c-1,0.9-1.9,1.9-2.9,2.7c-3.8,3.6-7.8,6.9-12.1,10c-0.2,0.1-0.4,0.3-0.5,0.4c-2.1,2.4-4.5,4.4-7,6.2c-0.7,0.5-1.3,1-2,1.4
				c-11.9,10.3-23.9,20.6-36,31c-2.7,2.4-5.5,4.7-8.2,7.1c2.8,0.3,4.3-1.2,6-2l8.5-4.5c12.4-6.5,24.7-13.1,37-19.6
				c1.4-0.8,2.8-1.7,4.2-2.5c3-1.8,6-3.5,9.1-5c1.5-0.7,3-1.4,4.5-2.1c0.8-0.6,1.6-1.2,2.4-1.6c2.5-1.4,5-2.7,7.5-4
				c3.1-1.7,6.3-3.4,9.4-5.1c4.6-2.5,9.2-5,13.8-7.4c3.2-1.8,6.5-3.5,9.8-5.3c16.2-8.7,32.4-17.5,48.6-26.2c0.4-0.2,0.8-0.4,1.1-0.6
				c1.4-0.8,2.8-1.5,4.1-2.2c8.6-4.7,17.4-9.4,26.8-14.6c-3.4-1.2-6.6-2.3-9.6-3.4c-3.2-1.1-6.3-2.2-9.4-3.3
				c1.9-2.6,4.3-3.3,6.3-4.4c10.6-5.9,21.2-11.8,31.8-17.7c12.4-6.9,24.7-13.8,37.1-20.6c3-1.6,6-3.3,9-4.9c0,0,0.1,0,0.1,0
				c4.4-2.4,8.7-4.8,13.1-7.1c1-0.6,2-1.1,3-1.7c2-1.1,4-2.2,5.9-3.4c4.9-3.1,9.3-6.5,13-10.3c2.7-2.8,5.1-5.8,7.1-9.1
				c4.5-7.2,7.2-15.7,7.7-25.9c0.2-4,1-7.7,2.4-11c1.1-2.5,2.5-4.8,4.2-6.9c2.8-3.4,6.6-6.1,11.3-8.1c0.3-0.1,0.6-0.3,0.9-0.4
				c0.2-0.1,0.5-0.2,0.7-0.3c4.5-1.7,8.7-2.8,11.9,3.1C341.1,19,342,13.9,339.8,9.6z M304,10l-11.6,7.6c-0.5,0.3-1.3-0.2-1.3-0.8
				l-0.1-1c-0.2-3.5,1.9-6.1,5.1-6.6c0.1,0,0.3,0,0.5-0.1c0.2,0,0.3,0,0.5,0h0.2l4.1,0h2C304,9,304.4,9.7,304,10z"/>
			<path class="st0" d="M339.8,9.6c-0.5-0.9-1.1-1.8-1.9-2.7c-3.7-3.8-8.3-2.2-12.6-0.7c-0.5,0.2-0.9,0.3-1.4,0.5
				c-2,0.6-3.6,1.1-5.5-0.4c-10.9-9.1-22.5-6.9-34-1.4c-5,2.4-9.5,5.7-13.7,9.2c-2.7,2.3-5.4,4.6-8.1,7c-0.6,0.6-1.3,1.1-1.9,1.7
				c-1.7,1.5-3.5,2.8-5.4,4l29.8,6.9L225,34h0c-0.3,0.2-0.6,0.4-0.8,0.6l0,0l-1.2,1.1l-3.9,3.6l-7.1,6.6l-2.7,2.5l-4.9,4.8
				l-23.3,22.4l-5.6,5.4l-40,38.4l-38.1,36.6c-0.2,0.3-0.2,0.6-0.2,0.9c0,1,1,1.7,3.2,2.4c4.8,1.4,9.8,2.6,15.2,5.6
				c-7.8,6.5-15.5,13-23.1,19.4c-2.6,2.2-5.2,4.3-7.7,6.5c-3.7,3.1-7.4,6.2-11.1,9.3c-1.6,1.3-3.1,2.6-4.7,3.9
				c-1,0.9-1.9,1.9-2.9,2.7c-3.8,3.6-7.8,6.9-12.1,10c-0.2,0.1-0.4,0.3-0.5,0.4c-2.1,2.4-4.5,4.4-7,6.2c-0.7,0.5-1.3,1-2,1.4
				c-11.9,10.3-23.9,20.6-36,31c-2.7,2.4-5.5,4.7-8.2,7.1c2.8,0.3,4.3-1.2,6-2l8.5-4.5c12.4-6.5,24.7-13.1,37-19.6
				c1.4-0.8,2.8-1.7,4.2-2.5c3-1.8,6-3.5,9.1-5c1.5-0.7,3-1.4,4.5-2.1c0.8-0.6,1.6-1.2,2.4-1.6c2.5-1.4,5-2.7,7.5-4
				c3.1-1.7,6.3-3.4,9.4-5.1c4.6-2.5,9.2-5,13.8-7.4c3.2-1.8,6.5-3.5,9.8-5.3c16.2-8.7,32.4-17.5,48.6-26.2c0.4-0.2,0.8-0.4,1.1-0.6
				c1.4-0.8,2.8-1.5,4.1-2.2c8.6-4.7,17.4-9.4,26.8-14.6c-3.4-1.2-6.6-2.3-9.6-3.4c-3.2-1.1-6.3-2.2-9.4-3.3
				c1.9-2.6,4.3-3.3,6.3-4.4c10.6-5.9,21.2-11.8,31.8-17.7c12.4-6.9,24.7-13.8,37.1-20.6c3-1.6,6-3.3,9-4.9c0,0,0.1,0,0.1,0
				c4.4-2.4,8.7-4.8,13.1-7.1c1-0.6,2-1.1,3-1.7c2-1.1,4-2.2,5.9-3.4c4.9-3.1,9.3-6.5,13-10.3c2.7-2.8,5.1-5.8,7.1-9.1
				c4.5-7.2,7.2-15.7,7.7-25.9c0.2-4,1-7.7,2.4-11c1.1-2.5,2.5-4.8,4.2-6.9c2.8-3.4,6.6-6.1,11.3-8.1c0.3-0.1,0.6-0.3,0.9-0.4
				c0.2-0.1,0.5-0.2,0.7-0.3c4.5-1.7,8.7-2.8,11.9,3.1C341.1,19,342,13.9,339.8,9.6z M304,10l-11.6,7.6c-0.5,0.3-1.3-0.2-1.3-0.8
				l-0.1-1c-0.2-3.5,1.9-6.1,5.1-6.6c0.1,0,0.3,0,0.5-0.1c0.2,0,0.3,0,0.5,0h0.2l4.1,0h2C304,9,304.4,9.7,304,10z"/>
			<path class="st0" d="M339.8,9.6c-0.5-0.9-1.1-1.8-1.9-2.7c-3.7-3.8-8.3-2.2-12.6-0.7c-0.5,0.2-0.9,0.3-1.4,0.5
				c-2,0.6-3.6,1.1-5.5-0.4c-10.9-9.1-22.5-6.9-34-1.4c-5,2.4-9.5,5.7-13.7,9.2c-2.7,2.3-5.4,4.6-8.1,7c-0.6,0.6-1.3,1.1-1.9,1.7
				c-1.7,1.5-3.5,2.8-5.4,4l29.8,6.9L225,34h0c-0.3,0.2-0.6,0.4-0.8,0.6l0,0l-1.2,1.1l-3.9,3.6l-7.1,6.6l-2.7,2.5l-4.9,4.8
				l-23.3,22.4l-5.6,5.4l-40,38.4l-38.1,36.6c-0.2,0.3-0.2,0.6-0.2,0.9c0,1,1,1.7,3.2,2.4c4.8,1.4,9.8,2.6,15.2,5.6
				c-7.8,6.5-15.5,13-23.1,19.4c-2.6,2.2-5.2,4.3-7.7,6.5c-3.7,3.1-7.4,6.2-11.1,9.3c-1.6,1.3-3.1,2.6-4.7,3.9
				c-1,0.9-1.9,1.9-2.9,2.7c-3.8,3.6-7.8,6.9-12.1,10c-0.2,0.1-0.4,0.3-0.5,0.4c-2.1,2.4-4.5,4.4-7,6.2c-0.7,0.5-1.3,1-2,1.4
				c-11.9,10.3-23.9,20.6-36,31c-2.7,2.4-5.5,4.7-8.2,7.1c2.8,0.3,4.3-1.2,6-2l8.5-4.5c12.4-6.5,24.7-13.1,37-19.6
				c1.4-0.8,2.8-1.7,4.2-2.5c3-1.8,6-3.5,9.1-5c1.5-0.7,3-1.4,4.5-2.1c0.8-0.6,1.6-1.2,2.4-1.6c2.5-1.4,5-2.7,7.5-4
				c3.1-1.7,6.3-3.4,9.4-5.1c4.6-2.5,9.2-5,13.8-7.4c3.2-1.8,6.5-3.5,9.8-5.3c16.2-8.7,32.4-17.5,48.6-26.2c0.4-0.2,0.8-0.4,1.1-0.6
				c1.4-0.8,2.8-1.5,4.1-2.2c8.6-4.7,17.4-9.4,26.8-14.6c-3.4-1.2-6.6-2.3-9.6-3.4c-3.2-1.1-6.3-2.2-9.4-3.3
				c1.9-2.6,4.3-3.3,6.3-4.4c10.6-5.9,21.2-11.8,31.8-17.7c12.4-6.9,24.7-13.8,37.1-20.6c3-1.6,6-3.3,9-4.9c0,0,0.1,0,0.1,0
				c4.4-2.4,8.7-4.8,13.1-7.1c1-0.6,2-1.1,3-1.7c2-1.1,4-2.2,5.9-3.4c4.9-3.1,9.3-6.5,13-10.3c2.7-2.8,5.1-5.8,7.1-9.1
				c4.5-7.2,7.2-15.7,7.7-25.9c0.2-4,1-7.7,2.4-11c1.1-2.5,2.5-4.8,4.2-6.9c2.8-3.4,6.6-6.1,11.3-8.1c0.3-0.1,0.6-0.3,0.9-0.4
				c0.2-0.1,0.5-0.2,0.7-0.3c4.5-1.7,8.7-2.8,11.9,3.1C341.1,19,342,13.9,339.8,9.6z M304,10l-11.6,7.6c-0.5,0.3-1.3-0.2-1.3-0.8
				l-0.1-1c-0.2-3.5,1.9-6.1,5.1-6.6c0.1,0,0.3,0,0.5-0.1c0.2,0,0.3,0,0.5,0h0.2l4.1,0h2C304,9,304.4,9.7,304,10z"/>
			<path class="st0" d="M339.8,9.6c-0.5-0.9-1.1-1.8-1.9-2.7c-3.7-3.8-8.3-2.2-12.6-0.7c-0.5,0.2-0.9,0.3-1.4,0.5
				c-2,0.6-3.6,1.1-5.5-0.4c-10.9-9.1-22.5-6.9-34-1.4c-5,2.4-9.5,5.7-13.7,9.2c-2.7,2.3-5.4,4.6-8.1,7c-0.6,0.6-1.3,1.1-1.9,1.7
				c-1.7,1.5-3.5,2.8-5.4,4l29.8,6.9L225,34h0c-0.3,0.2-0.6,0.4-0.8,0.6l0,0l-1.2,1.1l-3.9,3.6l-7.1,6.6l-2.7,2.5l-4.9,4.8
				l-23.3,22.4l-5.6,5.4l-40,38.4l-38.1,36.6c-0.2,0.3-0.2,0.6-0.2,0.9c0,1,1,1.7,3.2,2.4c4.8,1.4,9.8,2.6,15.2,5.6
				c-7.8,6.5-15.5,13-23.1,19.4c-2.6,2.2-5.2,4.3-7.7,6.5c-3.7,3.1-7.4,6.2-11.1,9.3c-1.6,1.3-3.1,2.6-4.7,3.9
				c-1,0.9-1.9,1.9-2.9,2.7c-3.8,3.6-7.8,6.9-12.1,10c-0.2,0.1-0.4,0.3-0.5,0.4c-2.1,2.4-4.5,4.4-7,6.2c-0.7,0.5-1.3,1-2,1.4
				c-11.9,10.3-23.9,20.6-36,31c-2.7,2.4-5.5,4.7-8.2,7.1c2.8,0.3,4.3-1.2,6-2l8.5-4.5c12.4-6.5,24.7-13.1,37-19.6
				c1.4-0.8,2.8-1.7,4.2-2.5c3-1.8,6-3.5,9.1-5c1.5-0.7,3-1.4,4.5-2.1c0.8-0.6,1.6-1.2,2.4-1.6c2.5-1.4,5-2.7,7.5-4
				c3.1-1.7,6.3-3.4,9.4-5.1c4.6-2.5,9.2-5,13.8-7.4c3.2-1.8,6.5-3.5,9.8-5.3c16.2-8.7,32.4-17.5,48.6-26.2c0.4-0.2,0.8-0.4,1.1-0.6
				c1.4-0.8,2.8-1.5,4.1-2.2c8.6-4.7,17.4-9.4,26.8-14.6c-3.4-1.2-6.6-2.3-9.6-3.4c-3.2-1.1-6.3-2.2-9.4-3.3
				c1.9-2.6,4.3-3.3,6.3-4.4c10.6-5.9,21.2-11.8,31.8-17.7c12.4-6.9,24.7-13.8,37.1-20.6c3-1.6,6-3.3,9-4.9c0,0,0.1,0,0.1,0
				c4.4-2.4,8.7-4.8,13.1-7.1c1-0.6,2-1.1,3-1.7c2-1.1,4-2.2,5.9-3.4c4.9-3.1,9.3-6.5,13-10.3c2.7-2.8,5.1-5.8,7.1-9.1
				c4.5-7.2,7.2-15.7,7.7-25.9c0.2-4,1-7.7,2.4-11c1.1-2.5,2.5-4.8,4.2-6.9c2.8-3.4,6.6-6.1,11.3-8.1c0.3-0.1,0.6-0.3,0.9-0.4
				c0.2-0.1,0.5-0.2,0.7-0.3c4.5-1.7,8.7-2.8,11.9,3.1C341.1,19,342,13.9,339.8,9.6z M304,10l-11.6,7.6c-0.5,0.3-1.3-0.2-1.3-0.8
				l-0.1-1c-0.2-3.5,1.9-6.1,5.1-6.6c0.1,0,0.3,0,0.5-0.1c0.2,0,0.3,0,0.5,0h0.2l4.1,0h2C304,9,304.4,9.7,304,10z"/>
			<path class="st0" d="M339.8,9.6c-0.5-0.9-1.1-1.8-1.9-2.7c-3.7-3.8-8.3-2.2-12.6-0.7c-0.5,0.2-0.9,0.3-1.4,0.5
				c-2,0.6-3.6,1.1-5.5-0.4c-10.9-9.1-22.5-6.9-34-1.4c-5,2.4-9.5,5.7-13.7,9.2c-2.7,2.3-5.4,4.6-8.1,7c-0.6,0.6-1.3,1.1-1.9,1.7
				c-1.7,1.5-3.5,2.8-5.4,4l29.8,6.9L225,34h0c-0.3,0.2-0.6,0.4-0.8,0.6l0,0l-1.2,1.1l-3.9,3.6l-7.1,6.6l-2.7,2.5l-4.9,4.8
				l-23.3,22.4l-5.6,5.4l-40,38.4l-38.1,36.6c-0.2,0.3-0.2,0.6-0.2,0.9c0,1,1,1.7,3.2,2.4c4.8,1.4,9.8,2.6,15.2,5.6
				c-7.8,6.5-15.5,13-23.1,19.4c-2.6,2.2-5.2,4.3-7.7,6.5c-3.7,3.1-7.4,6.2-11.1,9.3c-1.6,1.3-3.1,2.6-4.7,3.9
				c-1,0.9-1.9,1.9-2.9,2.7c-3.8,3.6-7.8,6.9-12.1,10c-0.2,0.1-0.4,0.3-0.5,0.4c-2.1,2.4-4.5,4.4-7,6.2c-0.7,0.5-1.3,1-2,1.4
				c-11.9,10.3-23.9,20.6-36,31c-2.7,2.4-5.5,4.7-8.2,7.1c2.8,0.3,4.3-1.2,6-2l8.5-4.5c12.4-6.5,24.7-13.1,37-19.6
				c1.4-0.8,2.8-1.7,4.2-2.5c3-1.8,6-3.5,9.1-5c1.5-0.7,3-1.4,4.5-2.1c0.8-0.6,1.6-1.2,2.4-1.6c2.5-1.4,5-2.7,7.5-4
				c3.1-1.7,6.3-3.4,9.4-5.1c4.6-2.5,9.2-5,13.8-7.4c3.2-1.8,6.5-3.5,9.8-5.3c16.2-8.7,32.4-17.5,48.6-26.2c0.4-0.2,0.8-0.4,1.1-0.6
				c1.4-0.8,2.8-1.5,4.1-2.2c8.6-4.7,17.4-9.4,26.8-14.6c-3.4-1.2-6.6-2.3-9.6-3.4c-3.2-1.1-6.3-2.2-9.4-3.3
				c1.9-2.6,4.3-3.3,6.3-4.4c10.6-5.9,21.2-11.8,31.8-17.7c12.4-6.9,24.7-13.8,37.1-20.6c3-1.6,6-3.3,9-4.9c0,0,0.1,0,0.1,0
				c4.4-2.4,8.7-4.8,13.1-7.1c1-0.6,2-1.1,3-1.7c2-1.1,4-2.2,5.9-3.4c4.9-3.1,9.3-6.5,13-10.3c2.7-2.8,5.1-5.8,7.1-9.1
				c4.5-7.2,7.2-15.7,7.7-25.9c0.2-4,1-7.7,2.4-11c1.1-2.5,2.5-4.8,4.2-6.9c2.8-3.4,6.6-6.1,11.3-8.1c0.3-0.1,0.6-0.3,0.9-0.4
				c0.2-0.1,0.5-0.2,0.7-0.3c4.5-1.7,8.7-2.8,11.9,3.1C341.1,19,342,13.9,339.8,9.6z M304,10l-11.6,7.6c-0.5,0.3-1.3-0.2-1.3-0.8
				l-0.1-1c-0.2-3.5,1.9-6.1,5.1-6.6c0.1,0,0.3,0,0.5-0.1c0.2,0,0.3,0,0.5,0h0.2l4.1,0h2C304,9,304.4,9.7,304,10z"/>
			<path class="st0" d="M155.8,43.4c-3.8-3.1-7.8-5.9-12.1-8.4h0c-6.6-3.9-13.8-6.9-21.2-8.9c-5.6-1.6-11.5-2.6-17.4-3
				c-2.2-0.2-4.4-0.2-6.7-0.2H81.5l6.3,11.3l5,8.9l7.2,12.9l5,9l23.8,42.8l43.1-41.4l2.3-2.2C169.1,56.1,162.8,49.2,155.8,43.4z
				 M131.3,90.3l-17-30.6l-5-9l-7.2-12.9l-2.4-4.3c1.5,0,2.9,0.1,4.4,0.2c5.2,0.4,10.3,1.3,15.4,2.7c6.5,1.8,12.8,4.4,18.7,7.8
				l0.8,0.4c3.5,2.1,6.8,4.4,9.9,7c4.1,3.3,7.8,7,11.1,11.1L131.3,90.3z"/>
			<path class="st0" d="M155.8,43.4c-3.8-3.1-7.8-5.9-12.1-8.4h0c-6.6-3.9-13.8-6.9-21.2-8.9c-5.6-1.6-11.5-2.6-17.4-3
				c-2.2-0.2-4.4-0.2-6.7-0.2H81.5l6.3,11.3l5,8.9l7.2,12.9l5,9l23.8,42.8l43.1-41.4l2.3-2.2C169.1,56.1,162.8,49.2,155.8,43.4z
				 M131.3,90.3l-17-30.6l-5-9l-7.2-12.9l-2.4-4.3c1.5,0,2.9,0.1,4.4,0.2c5.2,0.4,10.3,1.3,15.4,2.7c6.5,1.8,12.8,4.4,18.7,7.8
				l0.8,0.4c3.5,2.1,6.8,4.4,9.9,7c4.1,3.3,7.8,7,11.1,11.1L131.3,90.3z"/>
			<path class="st0" d="M269.6,235.2l-5.1-9.2l-8-14.5l-5.2-9.4l-7.7-13.9l-5.5-9.9l-19.8-35.5c-0.5,0.3-12.1,6.8-13.7,7.6l20.4,7.2
				L199,171.7l-11.7,6.3c-5.1,2.8-10,5.4-14.9,8.1c6.5,10.5,14.6,19.6,23.8,27.3c3,2.5,6,4.8,9.2,6.9c4.7,3.2,9.7,6.1,14.8,8.5
				c3.7,1.8,7.5,3.4,11.4,4.7c6.3,2.2,12.8,3.9,19.4,5c4.5,0.8,9,1.2,13.5,1.5c1.8,0.1,3.7,0.1,5.5,0.1h2.3L269.6,235.2z
				 M252.8,228.1c-6-1-11.9-2.5-17.6-4.6c-3.5-1.2-7-2.7-10.3-4.3c-4.6-2.2-9.2-4.8-13.5-7.7c-2.9-1.9-5.7-4.1-8.4-6.3
				c-5.5-4.6-10.5-9.8-15-15.4c1.4-0.8,2.9-1.6,4.4-2.4l11.7-6.3l17.8-9.6l6.7,12.1l5.5,9.9l7.7,13.9l5.2,9.4l6.4,11.4
				C253.2,228.2,253,228.1,252.8,228.1z"/>
			<path class="st0" d="M269.6,235.2l-5.1-9.2l-8-14.5l-5.2-9.4l-7.7-13.9l-5.5-9.9l-19.8-35.5c-0.5,0.3-12.1,6.8-13.7,7.6l20.4,7.2
				L199,171.7l-11.7,6.3c-5.1,2.8-10,5.4-14.9,8.1c6.5,10.5,14.6,19.6,23.8,27.3c3,2.5,6,4.8,9.2,6.9c4.7,3.2,9.7,6.1,14.8,8.5
				c3.7,1.8,7.5,3.4,11.4,4.7c6.3,2.2,12.8,3.9,19.4,5c4.5,0.8,9,1.2,13.5,1.5c1.8,0.1,3.7,0.1,5.5,0.1h2.3L269.6,235.2z
				 M252.8,228.1c-6-1-11.9-2.5-17.6-4.6c-3.5-1.2-7-2.7-10.3-4.3c-4.6-2.2-9.2-4.8-13.5-7.7c-2.9-1.9-5.7-4.1-8.4-6.3
				c-5.5-4.6-10.5-9.8-15-15.4c1.4-0.8,2.9-1.6,4.4-2.4l11.7-6.3l17.8-9.6l6.7,12.1l5.5,9.9l7.7,13.9l5.2,9.4l6.4,11.4
				C253.2,228.2,253,228.1,252.8,228.1z"/>
		</g>
		<g>
			<path class="st0" d="M274,114l-6,28l-5.2,24.2h9l4.9-23.1h8.9c2.4,0,4.6-0.8,6.3-2.2c1.7-1.4,3-3.4,3.5-5.7h-16.9l1.8-9l0.9-4.4
				h9.9c2.4,0,4.6-0.8,6.3-2.2c0.9-0.7,1.6-1.6,2.3-2.5c0.6-0.9,1-2,1.3-3.1H274z"/>
			<path class="st0" d="M314.6,125.7c-0.4,0-0.7,0-1.1,0c-7.3,0.3-10.7,4.1-12.4,8.9c-0.3,0.8-0.5,1.6-0.7,2.5h8.4
				c0.8-2.9,2-4.9,5-4.9h0.1c4.2,0.1,4.2,3.2,3.5,6.3l-0.7,3c-0.9,0.1-1.8,0.1-2.7,0.2c-1.8,0.2-3.6,0.4-5.3,0.7
				c-2.9,0.5-5.5,1.3-7.7,2.5c-3,1.7-5.2,4.4-6.1,8.9c-1,4.9,0,10.2,4.4,12.2c1.2,0.5,2.6,0.8,4.2,0.8c4.3,0,6.6-1.4,8.6-4.1
				c0,0,0,0,0,0c-0.2,0.7,0,1.4,0.3,2c0.5,0.8,1.4,1.4,2.5,1.4h5.3c0.3-2.3,1.2-6.2,2-9.8l3.6-17.1C328,130,323.5,125.7,314.6,125.7
				z M314.9,150.5c-0.4,1.8-0.8,3.3-1.3,4.6c-1.3,3.1-3.3,4.6-6.1,4.6c-3.5,0-4.2-2.7-3.6-5.7c0.7-3.2,3.1-4.6,6.3-5.3
				c1.1-0.3,2.4-0.4,3.8-0.6c0.5,0,1-0.1,1.4-0.1L314.9,150.5z"/>
			<path class="st0" d="M337.9,120.2l-9.8,46h9l11.6-54.8C343.5,111.4,339,115.1,337.9,120.2z"/>
			<path class="st0" d="M377.2,138.7c0.7-5.6-0.9-13-11.5-13c-10.1,0-15.3,9.5-17.5,19.5c-2.2,10.4-1.9,21.7,10.7,21.7
				c10.1,0,13.7-6.8,15.4-11.9h-8.9c-0.8,2.1-2.5,4.7-5.6,4.7c-5,0-4.1-6.9-2.8-13.4c1.5-7.3,4-13.2,7.9-13.2c3.1,0,3.8,2.2,3.5,5.7
				H377.2z"/>
			<path class="st0" d="M398.4,125.7c-8.7,0-15.4,7.6-17.9,19.9c-2.7,13.4,1.1,21.3,11.5,21.3c11,0,16-9.4,18.1-19.8
				C412.5,135,409.9,125.7,398.4,125.7z M401.2,146.3c-1.8,8.2-4.6,13.1-8.4,13.1c-4.1,0-5.3-3.8-3.5-12.9
				c1.3-6.5,4.2-13.5,8.5-13.5C403.2,133.1,402.8,139.2,401.2,146.3z"/>
			<path class="st0" d="M438.2,125.7c-4.6,0-7.5,2-9.4,4.8c0,0,0,0,0,0c0.4-2.2-1.3-4.2-3.5-4.2h-4.6c-0.3,1.6-0.8,4.2-2.5,12.4
				l-5.8,27.5h9l5.2-24.7c1.3-6.3,3.5-8.4,7-8.4c3.4,0,4.3,2.3,3.4,6.4l-5.6,26.6h8.9l5.8-27.2C448,129.8,444.4,125.7,438.2,125.7z"
				/>
			<path class="st0" d="M511.7,99.2h-16.1c-0.7,1.2-20.1,28.9-21,30.4h-0.2c-0.2-1.3-4.5-14.7-4.7-16.3h-14.9l9.2,26l-20.4,26.8h15
				c1-1.6,10.8-15.3,11.6-17h0.2c0.3,1.7,5,15.3,5.3,17h14.9l-9.8-26.8L511.7,99.2z"/>
			<path class="st0" d="M527.4,139v-0.2c5.9-2,9.1-5.9,9.1-11.8c0-6.4-4.6-12.9-17-12.9c-12.8,0-17.9,7.3-19.3,14.3h12.4
				c1-3.1,2.4-5.2,5.7-5.2c3.1,0,4.3,2.1,4.3,4.5c0,3.7-2.4,6.6-7.8,6.6h-3.4l-2,9.5h3.7c5.3,0,7,2.4,7,6c0,4.5-2.2,8.2-6.5,8.2
				c-3.8,0-5.2-2.9-5.3-6.5h-13.2c-0.4,7.6,4.1,15.6,18.1,15.6c14.6,0,21-8.2,21-17.1C534.4,143.5,530,140.2,527.4,139z"/>
			<path class="st0" d="M566,131.7c-4.3,0-7,1.2-9.6,3.2c1.5-7,4.1-11.8,8.3-11.8c3.4,0,4.2,1.9,4.3,4.6h12.7
				c0.1-5.9-3.3-13.6-16.7-13.6c-20.4,0-24.6,24.5-24.6,33.9c0,12,5.6,19,17.5,19c15.4,0,21.5-10.9,21.5-21.2
				C579.4,137.7,574.4,131.7,566,131.7z M558.4,158c-3,0-4.7-2.3-4.7-6.1c0-4.8,1.8-11,6.8-11c3.1,0,4.7,1.9,4.7,5.8
				C565.2,151.3,563.2,158,558.4,158z"/>
			<path class="st0" d="M609.8,114.1c-13.7,0-20.6,12.2-23.1,24.8c-3.1,16,0.2,28.1,15.6,28.1c14.5,0,20.8-12.9,23.2-24.5
				C628.6,127.1,625.3,114.1,609.8,114.1z M611.8,140.8c-2.3,11.9-5,17-8.9,17c-4.8,0-4.9-6-2.7-17.2c2-10.1,4.5-17,9.2-17
				C614.3,123.5,614.1,129.3,611.8,140.8z"/>
		</g>
	</g>
</g>
<polygon class="st0" points="183,33.5 289.3,33.5 222.4,87 "/>
</svg>
